<svg width="48" height="60" viewBox="0 0 48 60" fill="none" xmlns="http://www.w3.org/2000/svg">
<g clip-path="url(#clip0_200_17348)">
<path d="M40.3564 39.0937L40.3786 39.0302C40.5384 38.4303 40.7879 37.858 41.1187 37.3327C41.5387 36.8944 42.0238 36.5234 42.5569 36.2328C43.632 35.6844 44.5244 34.8353 45.1255 33.7887C45.5447 32.6642 45.6373 31.444 45.3926 30.269C45.2804 29.644 45.2637 29.0056 45.343 28.3756C45.5321 27.8022 45.807 27.2608 46.1581 26.7696C46.8974 25.7938 47.3416 24.6267 47.4383 23.4063C47.3412 22.1866 46.8974 21.02 46.1592 20.0442C45.8074 19.5528 45.5321 19.0109 45.3427 18.4369C45.2634 17.8073 45.2801 17.1694 45.3923 16.5448C45.6369 15.3699 45.5447 14.1499 45.1266 13.0251C44.5252 11.9795 43.6334 11.131 42.5592 10.5823C42.0256 10.291 41.54 9.91914 41.1197 9.47984C40.7887 8.95445 40.5388 8.38217 40.3784 7.78229C40.1013 6.60792 39.4937 5.53746 38.6275 4.69747C37.6425 4.02044 36.4796 3.64903 35.2845 3.62974C34.6775 3.60289 34.0785 3.48106 33.5093 3.26866C33.0015 2.94722 32.5453 2.55065 32.1563 2.09247C31.3989 1.14145 30.3784 0.434403 29.2219 0.0594922C28.0518 -0.106051 26.8588 0.0756907 25.7911 0.582158C25.2225 0.831747 24.6182 0.990624 24.0004 1.053C23.3831 0.990851 22.7794 0.832099 22.2113 0.582548C21.1434 0.0752541 19.9497 -0.105914 18.7794 0.0617057C17.6234 0.435246 16.6031 1.14096 15.8457 2.09078C15.4574 2.54965 15.0011 2.94632 14.4927 3.26697C13.9235 3.47936 13.3245 3.6012 12.7175 3.62805C11.5224 3.64734 10.3595 4.01875 9.37451 4.69577C8.50814 5.53633 7.90017 6.60708 7.62226 7.78177C7.46246 8.38167 7.21294 8.95398 6.88214 9.47932C6.4621 9.91765 5.97701 10.2886 5.44397 10.5792C4.36886 11.1276 3.47641 11.9767 2.8753 13.0233C2.45611 14.1478 2.36353 15.368 2.60824 16.543C2.72044 17.168 2.73717 17.8064 2.65785 18.4364C2.4687 19.0098 2.19388 19.5512 1.84273 20.0424C1.10339 21.0184 0.659114 22.1857 0.5625 23.4063C0.65966 24.626 1.10349 25.7925 1.84169 26.7683C2.19348 27.2597 2.46875 27.8017 2.65811 28.3756C2.7375 29.0054 2.72078 29.6436 2.6085 30.2684C2.36398 31.4432 2.4561 32.6633 2.87426 33.7881C3.47562 34.8336 4.36748 35.6822 5.44162 36.2308C5.97526 36.5222 6.4608 36.894 6.8811 37.3333C7.21209 37.8587 7.462 38.431 7.62239 39.0309L7.64648 39.1002C7.64231 39.1069 7.63528 39.1105 7.63125 39.1174L0.91472 50.7505C0.66923 51.1753 0.548764 51.6607 0.567209 52.151C0.585655 52.6412 0.74226 53.1163 1.01897 53.5214C1.29569 53.9265 1.68124 54.2452 2.1312 54.4407C2.58116 54.6362 3.07721 54.7005 3.56216 54.6264L8.09532 53.9372L9.76618 58.2109C9.943 58.6687 10.2465 59.0667 10.6412 59.3583C11.0359 59.6499 11.5055 59.8231 11.995 59.8576C12.0624 59.8627 12.1298 59.8653 12.1972 59.8653C12.6538 59.8664 13.1025 59.7464 13.4976 59.5177C13.8927 59.289 14.2202 58.9596 14.4466 58.5631L21.4035 46.5119C21.6801 46.4228 21.9493 46.325 22.2096 46.23C22.7783 45.9805 23.3826 45.8218 24.0004 45.7595C24.6177 45.8217 25.2215 45.9804 25.7895 46.23C26.0499 46.3253 26.3222 46.4198 26.5989 46.5092L26.6046 46.5263L33.5538 58.5631C33.7803 58.9596 34.1077 59.289 34.5028 59.5177C34.898 59.7464 35.3467 59.8664 35.8032 59.8653C35.8706 59.8653 35.938 59.8627 36.0055 59.8576C36.4953 59.8229 36.9652 59.6496 37.3601 59.3577C37.7551 59.0659 38.0588 58.6677 38.2358 58.2096L39.9054 53.9372L44.4367 54.6264C44.9218 54.7009 45.4181 54.6368 45.8684 54.4415C46.3186 54.2462 46.7045 53.9276 46.9814 53.5224C47.2584 53.1172 47.4152 52.642 47.4337 52.1516C47.4522 51.6611 47.3317 51.1754 47.0861 50.7505L40.3564 39.0937ZM12.1912 57.261L10.1427 52.0182C10.0343 51.7435 9.83592 51.5137 9.58008 51.3662C9.32423 51.2186 9.02597 51.1621 8.73387 51.2057L3.17049 52.0526L9.08349 41.8106C9.17392 41.9178 9.27071 42.0195 9.37333 42.1151C10.3584 42.7921 11.5212 43.1635 12.7164 43.1828C13.3233 43.2096 13.9223 43.3315 14.4915 43.5439C14.9994 43.8653 15.4556 44.2619 15.8445 44.7201C16.5275 45.5253 17.384 46.1655 18.3498 46.5924L12.1912 57.261ZM26.6828 43.7835C25.8321 43.4192 24.9243 43.2066 24.0004 43.1553C23.0764 43.206 22.1685 43.4186 21.3181 43.7835C20.7112 44.0796 20.0427 44.2278 19.3675 44.2158C18.722 43.9203 18.1569 43.4742 17.7196 42.9149C17.1321 42.2297 16.4294 41.6524 15.6431 41.2092C14.805 40.8519 13.9109 40.6437 13.0011 40.5941C12.3106 40.5932 11.6307 40.4229 11.0213 40.0981C10.5673 39.5481 10.2489 38.8991 10.0917 38.2034C9.84998 37.3187 9.45798 36.4821 8.93283 35.7302C8.33732 35.0444 7.62636 34.4682 6.83214 34.0275C6.19594 33.7146 5.64573 33.2511 5.22925 32.6773C5.05266 31.9865 5.04133 31.2638 5.19618 30.5679C5.35058 29.6555 5.3523 28.7239 5.20126 27.811C4.95866 26.944 4.56944 26.1248 4.05045 25.3891C3.59857 24.8101 3.29517 24.1294 3.16671 23.4063C3.295 22.6832 3.59842 22.0026 4.05045 21.4238C4.56993 20.6884 4.9592 19.8691 5.20126 19.0019C5.35234 18.0889 5.35063 17.1571 5.19618 16.2447C5.04102 15.5487 5.0528 14.8258 5.23055 14.1353C5.64657 13.5601 6.19707 13.0956 6.83397 12.7822C7.62859 12.3422 8.34 11.7664 8.93596 11.0809C9.45988 10.3292 9.85085 9.49305 10.0918 8.609C10.2497 7.91303 10.5685 7.26376 11.0226 6.71326C11.632 6.3885 12.3119 6.2182 13.0024 6.21729C13.9124 6.16758 14.8066 5.95928 15.6448 5.60178C16.4316 5.15935 17.1345 4.58197 17.7213 3.89602C18.1587 3.33721 18.7238 2.89156 19.3692 2.59652C20.0439 2.58573 20.7117 2.73382 21.3186 3.02882C22.1691 3.39308 23.0767 3.60575 24.0004 3.65721C24.9244 3.60651 25.8323 3.3939 26.6828 3.02908C27.2901 2.73419 27.9582 2.58611 28.6333 2.59678C29.2788 2.89225 29.844 3.33835 30.2813 3.89758C30.8687 4.58282 31.5715 5.1601 32.3577 5.60334C33.1959 5.96066 34.09 6.16883 34.9997 6.21846C35.6903 6.21938 36.3701 6.38968 36.9796 6.71443C37.4336 7.26445 37.752 7.91346 37.9091 8.60913C38.1509 9.49384 38.5429 10.3304 39.068 11.0823C39.6635 11.7681 40.3745 12.3444 41.1687 12.785C41.8049 13.098 42.3551 13.5615 42.7716 14.1353C42.9482 14.826 42.9595 15.5487 42.8047 16.2447C42.6503 17.157 42.6485 18.0886 42.7996 19.0015C43.0422 19.8686 43.4314 20.6877 43.9504 21.4234C44.4023 22.0024 44.7057 22.6831 44.8341 23.4063C44.7058 24.1293 44.4024 24.81 43.9504 25.3887C43.4309 26.1242 43.0416 26.9434 42.7996 27.8106C42.6485 28.7236 42.6502 29.6554 42.8047 30.5679C42.9598 31.2639 42.948 31.9867 42.7703 32.6773C42.3543 33.2524 41.8038 33.7169 41.1669 34.0303C40.3723 34.4703 39.6608 35.0461 39.0649 35.7316C38.541 36.4834 38.15 37.3195 37.909 38.2035C37.7512 38.8996 37.4324 39.549 36.9783 40.0995C36.3688 40.4243 35.689 40.5946 34.9984 40.5955C34.0885 40.6452 33.1943 40.8535 32.356 41.211C31.5692 41.6534 30.8664 42.2308 30.2796 42.9168C29.8422 43.4756 29.277 43.9212 28.6316 44.2163C27.9571 44.2262 27.2897 44.0779 26.6828 43.7835ZM39.2676 51.2055C38.9756 51.1622 38.6775 51.2189 38.4217 51.3664C38.166 51.5139 37.9676 51.7435 37.8587 52.018L35.8096 57.261L29.6507 46.5924C30.6161 46.166 31.4723 45.5265 32.1551 44.7218C32.5434 44.2629 32.9997 43.8662 33.5081 43.5456C34.0774 43.3332 34.6764 43.2113 35.2833 43.1845C36.4784 43.1652 37.6413 42.7938 38.6263 42.1168C38.7294 42.0207 38.8267 41.9186 38.9175 41.8109L44.8304 52.0526L39.2676 51.2055ZM39.6257 23.4063C39.6257 20.3159 38.7093 17.2949 36.9924 14.7253C35.2754 12.1558 32.8351 10.153 29.98 8.97039C27.1248 7.78775 23.9831 7.47832 20.9521 8.08122C17.9211 8.68413 15.1369 10.1723 12.9517 12.3575C10.7664 14.5428 9.27828 17.3269 8.67538 20.3579C8.07247 23.3889 8.3819 26.5307 9.56454 29.3858C10.7472 32.2409 12.7499 34.6813 15.3195 36.3982C17.889 38.1151 20.91 39.0315 24.0004 39.0315C28.1431 39.027 32.1148 37.3793 35.0442 34.45C37.9735 31.5207 39.6212 27.549 39.6257 23.4063ZM24.0004 36.4273C21.4251 36.4273 18.9076 35.6637 16.7663 34.2329C14.625 32.8021 12.9561 30.7685 11.9705 28.3892C10.985 26.0099 10.7271 23.3918 11.2296 20.866C11.732 18.3401 12.9721 16.02 14.7931 14.199C16.6142 12.378 18.9343 11.1378 21.4601 10.6354C23.986 10.133 26.6041 10.3908 28.9834 11.3764C31.3627 12.3619 33.3963 14.0308 34.827 16.1721C36.2578 18.3135 37.0215 20.8309 37.0215 23.4063C37.0174 26.8584 35.6443 30.168 33.2032 32.6091C30.7622 35.0501 27.4526 36.4233 24.0004 36.4273ZM29.9311 18.4166C30.0735 18.5114 30.1958 18.6333 30.291 18.7753C30.3862 18.9174 30.4524 19.0769 30.486 19.2446C30.5195 19.4123 30.5197 19.5849 30.4864 19.7527C30.4532 19.9204 30.3872 20.08 30.2922 20.2222L25.0838 28.0349C24.9769 28.195 24.8358 28.3295 24.6706 28.4286C24.5055 28.5276 24.3204 28.5889 24.1288 28.6078C24.0856 28.6121 24.0423 28.6147 24.0004 28.6147C23.6551 28.6146 23.324 28.4774 23.0798 28.2332L19.1735 24.3269C18.9363 24.0813 18.8051 23.7524 18.808 23.411C18.811 23.0695 18.948 22.743 19.1894 22.5015C19.4308 22.2601 19.7574 22.1232 20.0988 22.1202C20.4402 22.1172 20.7691 22.2485 21.0147 22.4857L23.7982 25.2692L28.1254 18.7777C28.3171 18.4905 28.6149 18.2911 28.9535 18.2234C29.2921 18.1557 29.6437 18.2252 29.9311 18.4166Z" fill="white"/>
</g>
<defs>
<clipPath id="clip0_200_17348">
<rect width="47" height="60" fill="white" transform="translate(0.5)"/>
</clipPath>
</defs>
</svg>
